<svg width="1024" height="1024" viewBox="0 0 1024 1024" fill="none" xmlns="http://www.w3.org/2000/svg">
<rect width="1024" height="1024" fill="white"/>
<path d="M355.319 618.109C355.319 626.759 351.687 628.416 345.723 628.416H317.574C311.609 628.416 306.657 626.085 302.994 621.102L204.326 489.133H203.656V618.441C203.656 625.754 200.343 628.405 193.729 628.405H162.927C155.312 628.405 152 626.748 152 618.761V408.025C152 399.386 155.973 397.718 162.927 397.718H190.736C197.351 397.718 200.663 399.717 204.305 404.7L302.973 537.663H303.633V407.352C303.633 400.049 307.276 397.718 313.9 397.718H346.023C354.628 397.718 355.289 402.369 355.289 408.025V618.099H355.309L355.319 618.109ZM460.859 620.025C460.859 624.014 458.218 627.681 453.584 627.681H415.498C410.545 627.681 408.224 624.014 408.224 620.367V404.617C408.224 400.629 410.876 396.983 415.498 396.983H453.584C458.548 396.983 460.859 400.629 460.859 404.296V620.025ZM683.39 416.591L673.785 444.518C672.473 447.843 671.144 449.501 668.832 449.501C667.512 449.501 666.191 448.838 664.53 448.165C646.977 439.868 633.398 436.863 617.848 436.863C583.404 436.863 561.229 463.454 561.229 511.984C561.229 564.513 586.376 587.095 618.849 587.095C634.41 587.095 647.989 584.133 663.539 577.814C665.52 577.13 667.192 576.477 668.502 576.477C671.487 576.477 673.137 577.814 674.455 581.792L682.742 606.404C683.401 608.393 683.733 610.05 683.733 611.718C683.733 615.043 682.41 617.373 677.771 619.031C654.923 627.681 636.04 632 610.553 632C540.354 632 504.93 585.127 504.93 513.662C504.93 441.856 548.3 392 614.856 392C638.702 392 658.906 396.661 678.098 405.301C682.742 407.289 684.403 409.62 684.403 411.94C684.414 413.277 684.071 414.934 683.401 416.602L683.39 416.591ZM863.69 396.972C870.317 396.972 872.288 400.297 871.967 404.606L868.983 431.539C868.324 438.521 864.022 439.857 856.078 439.857H775.93V489.371H851.101C858.397 489.371 861.038 493.028 861.038 498.342V522.602C861.038 529.263 857.728 532.246 851.444 532.246H775.94V584.785H862.372C868.324 584.785 871.978 587.426 871.978 593.746V618.357C871.978 624.666 868.994 627.66 862.71 627.66H734.214C726.596 627.66 723.296 625.66 723.296 617.353V406.274C723.296 400.618 726.274 396.972 731.899 396.972L863.69 396.962V396.972Z" fill="black"/>
</svg>
